<svg width="20" height="20" viewBox="0 0 20 20" fill="none" xmlns="http://www.w3.org/2000/svg">
<path d="M2.08337 5.24998C2.08337 4.81276 2.43782 4.45831 2.87504 4.45831H17.125C17.5623 4.45831 17.9167 4.81276 17.9167 5.24998C17.9167 5.6872 17.5623 6.04165 17.125 6.04165H2.87504C2.43782 6.04165 2.08337 5.6872 2.08337 5.24998Z" fill="#E72649"/>
<path d="M2.08337 10.0255C2.08337 9.58825 2.43782 9.23383 2.87504 9.23383H17.125C17.5623 9.23383 17.9167 9.58825 17.9167 10.0255C17.9167 10.4627 17.5623 10.8172 17.125 10.8172H2.87504C2.43782 10.8172 2.08337 10.4627 2.08337 10.0255Z" fill="#E72649"/>
<path d="M2.87504 14.0094C2.43782 14.0094 2.08337 14.3638 2.08337 14.8011C2.08337 15.2382 2.43782 15.5927 2.87504 15.5927H17.125C17.5623 15.5927 17.9167 15.2382 17.9167 14.8011C17.9167 14.3638 17.5623 14.0094 17.125 14.0094H2.87504Z" fill="#E72649"/>
</svg>
