<svg width="20" height="20" viewBox="0 0 20 20" fill="none" xmlns="http://www.w3.org/2000/svg">
<circle cx="10" cy="10" r="10" fill="#26282F"/>
<path d="M11.906 9.72395L10.3226 11.8228C10.2364 11.9364 10.1206 12 10 12C9.8794 12 9.7636 11.9364 9.67739 11.8228L8.09402 9.72395C8.04953 9.66518 8.01904 9.58988 8.00646 9.50766C7.99388 9.42545 7.99976 9.34005 8.02337 9.26236C8.04698 9.18467 8.08725 9.11822 8.13902 9.07149C8.19079 9.02477 8.25172 8.99988 8.31404 9H11.686C11.7483 8.99988 11.8092 9.02477 11.861 9.07149C11.9128 9.11822 11.953 9.18467 11.9766 9.26236C12.0002 9.34005 12.0061 9.42545 11.9935 9.50766C11.981 9.58988 11.9505 9.66518 11.906 9.72395V9.72395Z" fill="#8D8E92"/>
</svg>
