<svg width="34" height="34" viewBox="0 0 34 34" fill="none" xmlns="http://www.w3.org/2000/svg">
<circle r="16.5" transform="matrix(-1 0 0 1 17 17)" fill="#26282F" stroke="#363943"/>
<g clip-path="url(#clip0_14_6)">
<path fill-rule="evenodd" clip-rule="evenodd" d="M14.9996 23.8222C14.8879 23.9295 14.7385 23.9896 14.583 23.9896C14.4274 23.9896 14.278 23.9295 14.1663 23.8222C14.1115 23.7693 14.068 23.706 14.0382 23.6362C14.0085 23.5663 13.9932 23.4912 13.9932 23.4154C13.9932 23.3396 14.0085 23.2645 14.0382 23.1947C14.068 23.1248 14.1115 23.0615 14.1663 23.0087L20.4358 16.8865L14.1682 10.9762C14.1137 10.9236 14.0703 10.8607 14.0406 10.7911C14.011 10.7216 13.9957 10.6469 13.9957 10.5714C13.9957 10.4959 14.011 10.4211 14.0406 10.3516C14.0703 10.2821 14.1137 10.2191 14.1682 10.1665C14.279 10.0574 14.4288 9.99622 14.5849 9.99622C14.741 9.99622 14.8907 10.0574 15.0015 10.1665L22.0069 16.8865L14.9996 23.8222Z" fill="#8D8E92"/>
</g>
<defs>
<clipPath id="clip0_14_6">
<rect width="8" height="14" fill="white" transform="translate(14 10)"/>
</clipPath>
</defs>
</svg>
