<svg width="34" height="34" viewBox="0 0 34 34" fill="none" xmlns="http://www.w3.org/2000/svg">
<circle cx="17" cy="17" r="16.5" fill="#26282F" stroke="#363943"/>
<g clip-path="url(#clip0_14_6)">
<path fill-rule="evenodd" clip-rule="evenodd" d="M19.0004 23.8222C19.1121 23.9295 19.2615 23.9896 19.417 23.9896C19.5726 23.9896 19.722 23.9295 19.8337 23.8222C19.8885 23.7693 19.932 23.706 19.9618 23.6362C19.9915 23.5663 20.0068 23.4912 20.0068 23.4154C20.0068 23.3396 19.9915 23.2645 19.9618 23.1947C19.932 23.1248 19.8885 23.0615 19.8337 23.0087L13.5642 16.8865L19.8318 10.9762C19.8863 10.9236 19.9297 10.8607 19.9594 10.7911C19.989 10.7216 20.0043 10.6469 20.0043 10.5714C20.0043 10.4959 19.989 10.4211 19.9594 10.3516C19.9297 10.2821 19.8863 10.2191 19.8318 10.1665C19.721 10.0574 19.5712 9.99622 19.4151 9.99622C19.259 9.99622 19.1093 10.0574 18.9985 10.1665L11.9931 16.8865L19.0004 23.8222Z" fill="#8D8E92"/>
</g>
<defs>
<clipPath id="clip0_14_6">
<rect width="8" height="14" fill="white" transform="matrix(-1 0 0 1 20 10)"/>
</clipPath>
</defs>
</svg>
