<svg width="26" height="26" viewBox="0 0 26 26" fill="none" xmlns="http://www.w3.org/2000/svg">
<circle cx="13" cy="13" r="12.5" fill="#26282F" stroke="#363943"/>
<g clip-path="url(#clip0_1_7)">
<path fill-rule="evenodd" clip-rule="evenodd" d="M14.3753 16.8984C14.4451 16.9597 14.5384 16.994 14.6356 16.994C14.7328 16.994 14.8262 16.9597 14.896 16.8984C14.9303 16.8682 14.9575 16.832 14.9761 16.7921C14.9947 16.7522 15.0043 16.7093 15.0043 16.6659C15.0043 16.6226 14.9947 16.5797 14.9761 16.5398C14.9575 16.4999 14.9303 16.4637 14.896 16.4335L10.9776 12.9351L14.8948 9.55783C14.929 9.52776 14.9561 9.49181 14.9746 9.45207C14.9931 9.41233 15.0027 9.36963 15.0027 9.32649C15.0027 9.28335 14.9931 9.24065 14.9746 9.20091C14.9561 9.16117 14.929 9.12519 14.8948 9.09512C14.8256 9.0328 14.732 8.99784 14.6345 8.99784C14.5369 8.99784 14.4433 9.0328 14.3741 9.09512L9.99571 12.9351L14.3753 16.8984Z" fill="#8D8E92"/>
</g>
<defs>
<clipPath id="clip0_1_7">
<rect width="5" height="8" fill="white" transform="matrix(-1 0 0 1 15 9)"/>
</clipPath>
</defs>
</svg>
