<svg width="14" height="16" viewBox="0 0 14 16" fill="none" xmlns="http://www.w3.org/2000/svg">
<path d="M13.6965 7.13712C12.3369 2.84856 6.94206 0 6.94206 0C6.94206 0 1.6634 2.84853 0.303477 7.13712C-0.390717 9.70017 0.238942 11.2637 0.865112 12.1068C1.6173 13.12 2.84784 13.7249 4.15622 13.7249C4.79089 13.7249 5.40038 13.521 5.93587 13.2036L5.62127 15.4555C5.60208 15.5922 5.64198 15.7306 5.73072 15.8354C5.81935 15.9402 5.94787 16 6.08305 16H8.03352C8.16858 16 8.29667 15.9402 8.3854 15.8358C8.47359 15.731 8.51349 15.5922 8.49485 15.4559L8.1954 13.3135C8.71267 13.5674 9.28379 13.7253 9.84389 13.7253C11.1526 13.7253 12.3827 13.1204 13.135 12.1073C13.7611 11.2635 14.3907 9.70013 13.6965 7.137L13.6965 7.13712Z" fill="#F00F38"/>
</svg>
