<svg width="16" height="15" viewBox="0 0 16 15" fill="none" xmlns="http://www.w3.org/2000/svg">
<path d="M7.18264 1.08645C7.55583 0.87981 7.99344 0.822177 8.40741 0.925148C8.82138 1.02812 9.18099 1.28405 9.41389 1.64145L9.47614 1.74495L15.2954 12.2517C15.4328 12.5 15.5053 12.7789 15.5063 13.0627C15.5073 13.3465 15.4368 13.6259 15.3011 13.8752C15.1655 14.1245 14.9692 14.3355 14.7304 14.4888C14.4916 14.6421 14.218 14.7327 13.9349 14.7522L13.8194 14.7567H2.18239C1.89886 14.7568 1.61986 14.6855 1.37117 14.5493C1.12248 14.4132 0.912108 14.2165 0.759485 13.9776C0.606861 13.7386 0.516906 13.4651 0.497926 13.1822C0.478946 12.8993 0.531553 12.6161 0.650889 12.359L0.704889 12.2517L6.52339 1.74495C6.67698 1.46793 6.90544 1.23973 7.18264 1.08645ZM8.00089 11.0015C7.90055 10.9983 7.8006 11.0153 7.70697 11.0515C7.61333 11.0877 7.52793 11.1424 7.45583 11.2122C7.38373 11.2821 7.32641 11.3657 7.28726 11.4581C7.24811 11.5506 7.22794 11.6499 7.22794 11.7503C7.22794 11.8507 7.24811 11.9501 7.28726 12.0425C7.32641 12.135 7.38373 12.2186 7.45583 12.2884C7.52793 12.3583 7.61333 12.4129 7.70697 12.4492C7.8006 12.4854 7.90055 12.5024 8.00089 12.4992C8.1954 12.493 8.37988 12.4114 8.5153 12.2717C8.65072 12.1319 8.72644 11.9449 8.72644 11.7503C8.72644 11.5557 8.65072 11.3687 8.5153 11.229C8.37988 11.0892 8.1954 11.0076 8.00089 11.0015ZM7.99939 4.99845C7.81557 4.9985 7.63818 5.06604 7.50088 5.18827C7.36359 5.31049 7.27596 5.47888 7.25464 5.66145L7.25089 5.74845V9.49995L7.25614 9.5877C7.2771 9.77063 7.36462 9.93946 7.50203 10.062C7.63944 10.1846 7.81713 10.2523 8.00126 10.2523C8.18539 10.2523 8.36309 10.1846 8.5005 10.062C8.63791 9.93946 8.72543 9.77063 8.74639 9.5877L8.75089 9.49995V5.74845L8.74564 5.6607C8.72413 5.47813 8.63632 5.30982 8.49889 5.18774C8.36145 5.06565 8.18397 4.99829 8.00014 4.99845H7.99939Z" fill="#E72649"/>
</svg>
