<svg width="8" height="12" viewBox="0 0 8 12" fill="none" xmlns="http://www.w3.org/2000/svg">
<path d="M6.91583 7.16666C7.38792 7.16666 7.65555 7.69224 7.40353 8.07047L7.36396 8.12343L4.44729 11.6234C4.22962 11.8846 3.84068 11.902 3.60018 11.6757L3.55103 11.6234L0.634366 8.12343C0.33214 7.76076 0.564574 7.21869 1.01648 7.17016L1.0825 7.16666H6.91583ZM3.55103 0.376549C3.7687 0.115349 4.15764 0.0979362 4.39814 0.324309L4.44729 0.376549L7.36396 3.87655C7.66618 4.23922 7.43375 4.78129 6.98184 4.82982L6.91583 4.83332H1.0825C0.610404 4.83332 0.342774 4.30774 0.594794 3.92951L0.634366 3.87655L3.55103 0.376549Z" fill="#8D8E92"/>
</svg>
