<svg width="14" height="11" viewBox="0 0 14 11" fill="none" xmlns="http://www.w3.org/2000/svg">
<path fill-rule="evenodd" clip-rule="evenodd" d="M4.41825 0.0393489L11.7643 1.93105C12.3498 2.08443 12.6692 2.64682 12.5627 3.15809L12.1901 4.38514C13.308 4.64077 14 4.99866 14 5.35655C14 6.07233 12.1369 6.43022 11.6046 6.48135L10.5932 10.2136C10.4335 10.776 9.84791 11.0828 9.26236 10.9805L1.91635 9.08882C1.3308 8.93544 1.01141 8.37304 1.1711 7.81065L1.54373 6.32796C0.585551 6.07233 0 5.76557 0 5.35655C0 4.94754 0.798479 4.53852 2.12928 4.28289L3.14068 0.755126C3.30038 0.19273 3.88593 -0.114032 4.41825 0.0393489ZM12.1369 4.6919L11.7643 5.91895C11.5513 5.97008 10.5932 6.17458 9.84791 6.22571C9.84791 6.22571 11.019 6.32796 11.924 6.07233C12.9886 5.86782 13.6274 5.61219 13.6274 5.35655C13.6274 5.15204 13.0418 4.89641 12.1369 4.6919ZM1.65019 6.0212C2.55513 6.22571 3.61977 6.07233 3.61977 6.07233C2.87452 6.0212 1.96958 5.86782 1.70342 5.81669L2.02281 4.6919C1.01141 4.89641 0.372624 5.15204 0.372624 5.35655C0.372624 5.71444 1.65019 6.0212 1.65019 6.0212ZM5.37643 3.00471C5.90875 2.69795 6.54753 2.90246 6.86692 3.41373C7.18631 3.925 6.97338 4.53852 6.44106 4.84528C5.90875 5.15204 5.26996 4.94754 4.95057 4.43627C4.63118 3.925 4.84411 3.31147 5.37643 3.00471ZM7.23954 6.12346C7.77186 5.86782 8.46388 6.0212 8.73004 6.53247C9.04943 7.04374 8.88973 7.70839 8.35741 7.96403C7.82509 8.27079 7.13308 8.11741 6.81369 7.60614C6.54753 7.09487 6.70722 6.43022 7.23954 6.12346Z" fill="#8D8E92"/>
</svg>
