<svg width="14" height="12" viewBox="0 0 14 12" fill="none" xmlns="http://www.w3.org/2000/svg">
<path d="M11.8518 1.54368C10.944 1.12706 9.98606 0.829718 9.0019 0.659055C8.99299 0.657553 8.98383 0.65885 8.97568 0.662767C8.96753 0.666685 8.9608 0.67303 8.9564 0.68093C8.83303 0.89968 8.69653 1.18581 8.60115 1.40981C7.54031 1.24881 6.46125 1.24881 5.4004 1.40981C5.29401 1.16027 5.17366 0.916929 5.0399 0.68093C5.03542 0.673116 5.02867 0.666844 5.02054 0.66294C5.01242 0.659035 5.00331 0.657681 4.9944 0.659055C4.01003 0.828805 3.0519 1.12631 2.14453 1.54368C2.13676 1.54664 2.13027 1.55221 2.12615 1.55943C0.311404 4.27106 -0.186471 6.91618 0.0576536 9.52806C0.0585286 9.54031 0.0664036 9.55256 0.0760286 9.56043C1.13279 10.3432 2.3148 10.9409 3.57165 11.3279C3.58053 11.3307 3.59006 11.3306 3.59887 11.3276C3.60769 11.3246 3.61532 11.3189 3.62065 11.3113C3.89015 10.9438 4.1299 10.5562 4.3364 10.1484C4.34071 10.14 4.34218 10.1305 4.3406 10.1212C4.33903 10.1119 4.33448 10.1033 4.32765 10.0968C4.32313 10.0925 4.31777 10.0893 4.3119 10.0872C3.93492 9.9423 3.56981 9.76823 3.2199 9.56656C3.21013 9.56102 3.20286 9.55193 3.1996 9.54118C3.19635 9.53043 3.19735 9.51884 3.2024 9.50881C3.20538 9.50229 3.20988 9.49659 3.21553 9.49218C3.28903 9.43706 3.36253 9.3793 3.43253 9.32156C3.43871 9.31658 3.44613 9.31339 3.45399 9.31231C3.46185 9.31123 3.46986 9.31231 3.47715 9.31543C5.76878 10.3619 8.2494 10.3619 10.513 9.31543C10.5206 9.31216 10.5289 9.311 10.5371 9.31208C10.5452 9.31316 10.553 9.31643 10.5594 9.32156C10.6294 9.3793 10.7029 9.43706 10.7764 9.49218C10.7824 9.49653 10.7871 9.50229 10.7903 9.50895C10.7935 9.5156 10.795 9.52294 10.7947 9.53031C10.7943 9.53768 10.7921 9.54485 10.7883 9.55117C10.7845 9.5575 10.7792 9.56278 10.7729 9.56656C10.4238 9.77007 10.0582 9.94394 9.68003 10.0863C9.674 10.0885 9.66852 10.092 9.66398 10.0965C9.65944 10.101 9.65596 10.1065 9.65378 10.1126C9.65176 10.1184 9.65094 10.1246 9.6514 10.1308C9.65185 10.1369 9.65355 10.1429 9.6564 10.1484C9.8664 10.5553 10.107 10.9438 10.3713 11.3113C10.3766 11.3189 10.3842 11.3246 10.3931 11.3276C10.4019 11.3306 10.4114 11.3307 10.4203 11.3279C11.6792 10.9421 12.8632 10.3443 13.9212 9.56043C13.9265 9.55676 13.9309 9.55195 13.934 9.54634C13.9372 9.54074 13.9391 9.53449 13.9395 9.52806C14.2318 6.50843 13.4504 3.88518 11.8693 1.56031C11.8677 1.55647 11.8653 1.553 11.8623 1.55014C11.8593 1.54727 11.8557 1.54507 11.8518 1.54368ZM4.67853 7.9373C3.98815 7.9373 3.42028 7.30381 3.42028 6.52681C3.42028 5.74893 3.97765 5.11543 4.67853 5.11543C5.38465 5.11543 5.94728 5.75418 5.93678 6.52681C5.93678 7.30381 5.3794 7.9373 4.67853 7.9373ZM9.33003 7.9373C8.64053 7.9373 8.07178 7.30381 8.07178 6.52681C8.07178 5.74893 8.62915 5.11543 9.33003 5.11543C10.0362 5.11543 10.5997 5.75418 10.5883 6.52681C10.5883 7.30381 10.0362 7.9373 9.33003 7.9373Z" fill="#8D8E92"/>
</svg>
