<svg width="13" height="12" viewBox="0 0 13 12" fill="none" xmlns="http://www.w3.org/2000/svg">
<path d="M0 6.55081C0 6.44846 0.038809 6.35031 0.107889 6.27794C0.17697 6.20557 0.270663 6.16491 0.368357 6.16491H4.14238C4.23962 6.16564 4.33264 6.20661 4.40116 6.2789C4.46967 6.35119 4.50812 6.44893 4.50812 6.55081C4.50812 6.8609 4.44981 7.16797 4.33654 7.45446C4.22326 7.74095 4.05723 8.00127 3.84792 8.22054C3.63861 8.43981 3.39012 8.61375 3.11665 8.73242C2.84317 8.85109 2.55007 8.91217 2.25406 8.91217C1.95805 8.91217 1.66494 8.85109 1.39147 8.73242C1.11799 8.61375 0.869507 8.43981 0.660199 8.22054C0.45089 8.00127 0.284857 7.74095 0.17158 7.45446C0.058303 7.16797 -6.23789e-09 6.8609 0 6.55081ZM2.2534 2.41035C2.18526 2.41104 2.11839 2.42978 2.05902 2.46484C1.99966 2.4999 1.94973 2.55013 1.91389 2.61085L0.428658 5.09512C0.390412 5.15968 0.369297 5.23376 0.367491 5.30971C0.365685 5.38567 0.383254 5.46075 0.418386 5.52723C0.453517 5.5937 0.504939 5.64915 0.567348 5.68785C0.629757 5.72656 0.700893 5.74713 0.773419 5.74743C0.804301 5.74735 0.835078 5.74367 0.865181 5.73645C0.917191 5.72388 0.966317 5.70067 1.00974 5.66814C1.05315 5.63562 1.09001 5.59443 1.11818 5.54693L2.2534 3.64219L3.38863 5.54693C3.44582 5.64291 3.53706 5.71115 3.64228 5.73664C3.74749 5.76214 3.85807 5.7428 3.94968 5.68289C4.04129 5.62298 4.10643 5.52739 4.13077 5.41716C4.15511 5.30694 4.13665 5.19109 4.07946 5.09512L2.59948 2.61085C2.56296 2.54923 2.51197 2.49845 2.45138 2.46335C2.3908 2.42825 2.32264 2.41 2.2534 2.41035ZM9.05425 5.65542C9.14605 5.71508 9.25671 5.73412 9.3619 5.70837C9.4671 5.68263 9.55824 5.61419 9.61531 5.5181L10.7505 3.61335L11.8858 5.5181C11.9141 5.56562 11.951 5.60683 11.9946 5.63938C12.0381 5.67193 12.0873 5.69518 12.1394 5.7078C12.1915 5.72043 12.2455 5.72218 12.2982 5.71296C12.351 5.70373 12.4014 5.68372 12.4468 5.65405C12.4922 5.62438 12.5315 5.58565 12.5626 5.54005C12.5937 5.49446 12.6158 5.4429 12.6279 5.38832C12.6399 5.33375 12.6416 5.27721 12.6328 5.22196C12.624 5.1667 12.6049 5.1138 12.5766 5.06628L11.09 2.58476C11.0534 2.52347 11.0024 2.47294 10.942 2.43792C10.8816 2.4029 10.8137 2.38452 10.7446 2.38452C10.6756 2.38452 10.6077 2.4029 10.5472 2.43792C10.4868 2.47294 10.4359 2.52347 10.3992 2.58476L8.92447 5.06766C8.86741 5.16367 8.84903 5.27946 8.87336 5.38965C8.89769 5.49984 8.96274 5.59542 9.05425 5.65542ZM12.6356 6.13882H8.86155C8.76386 6.13882 8.67016 6.17948 8.60108 6.25185C8.532 6.32421 8.49319 6.42237 8.49319 6.52471C8.49319 7.1508 8.73061 7.75125 9.1532 8.19396C9.5758 8.63668 10.149 8.88539 10.7466 8.88539C11.3442 8.88539 11.9174 8.63668 12.34 8.19396C12.7626 7.75125 13 7.1508 13 6.52471C13 6.42308 12.9617 6.32554 12.8935 6.25329C12.8253 6.18104 12.7326 6.1399 12.6356 6.13882ZM6.89523 2.81547V8.22209C7.649 8.32285 8.34198 8.70763 8.84472 9.30456C9.34746 9.90149 9.62557 10.6697 9.6271 11.4658C9.6271 11.6075 9.57338 11.7434 9.47775 11.8435C9.38212 11.9437 9.25241 12 9.11717 12H3.88676C3.75152 12 3.62181 11.9437 3.52618 11.8435C3.43055 11.7434 3.37683 11.6075 3.37683 11.4658C3.37838 10.6767 3.65172 9.91467 4.14662 9.31977C4.64151 8.72487 5.32472 8.33706 6.07069 8.22759V2.80311C5.85009 2.72614 5.65174 2.59177 5.49423 2.41259C5.33672 2.23342 5.2252 2.01529 5.17011 1.77864H0.918927C0.811672 1.77864 0.708809 1.734 0.632968 1.65455C0.557128 1.5751 0.51452 1.46734 0.51452 1.35498C0.51452 1.24262 0.557128 1.13486 0.632968 1.05541C0.708809 0.975959 0.811672 0.931323 0.918927 0.931323H5.21861C5.31651 0.65776 5.49177 0.422014 5.72098 0.255592C5.95019 0.0891695 6.22243 0 6.50131 0C6.78019 0 7.05243 0.0891695 7.28164 0.255592C7.51085 0.422014 7.68611 0.65776 7.78401 0.931323H12.085C12.1923 0.931323 12.2951 0.975959 12.371 1.05541C12.4468 1.13486 12.4894 1.24262 12.4894 1.35498C12.4894 1.46734 12.4468 1.5751 12.371 1.65455C12.2951 1.734 12.1923 1.77864 12.085 1.77864H7.83382C7.77709 2.02212 7.66065 2.24585 7.49603 2.4277C7.33141 2.60956 7.12431 2.74322 6.89523 2.81547ZM7.06171 1.44219C7.06223 1.32477 7.0294 1.20985 6.9674 1.11204C6.9054 1.01423 6.81703 0.937944 6.71353 0.892889C6.61003 0.847835 6.49608 0.836046 6.38617 0.859021C6.27626 0.881997 6.17535 0.938699 6.09629 1.02192C6.01722 1.10513 5.96357 1.21111 5.94215 1.32636C5.92073 1.44161 5.93252 1.56093 5.97601 1.66914C6.0195 1.77735 6.09273 1.86957 6.18639 1.93406C6.28004 1.99856 6.38989 2.03241 6.50197 2.03132C6.65181 2.03132 6.79552 1.96897 6.90147 1.85797C7.00743 1.74697 7.06696 1.59642 7.06696 1.43944L7.06171 1.44219Z" fill="#E72649"/>
</svg>
