<svg width="12" height="11" viewBox="0 0 12 11" fill="none" xmlns="http://www.w3.org/2000/svg">
<path d="M0 6.0049C0 5.91109 0.0358237 5.82111 0.0995902 5.75478C0.163357 5.68844 0.249843 5.65117 0.340022 5.65117H3.82374C3.9135 5.65183 3.99936 5.6894 4.06261 5.75566C4.12585 5.82193 4.16134 5.91152 4.16134 6.0049C4.16134 6.28916 4.10752 6.57064 4.00296 6.83325C3.89839 7.09587 3.74513 7.3345 3.55193 7.5355C3.35872 7.7365 3.12935 7.89594 2.87691 8.00472C2.62447 8.1135 2.35391 8.16949 2.08067 8.16949C1.80743 8.16949 1.53687 8.1135 1.28443 8.00472C1.03199 7.89594 0.802622 7.7365 0.609414 7.5355C0.416206 7.3345 0.262945 7.09587 0.158382 6.83325C0.0538181 6.57064 -5.75805e-09 6.28916 0 6.0049ZM2.08006 2.20949C2.01716 2.21012 1.95543 2.2273 1.90064 2.25944C1.84584 2.29157 1.79975 2.33762 1.76666 2.39328L0.395684 4.67053C0.36038 4.72971 0.340889 4.79761 0.339222 4.86724C0.337556 4.93686 0.353773 5.00569 0.386202 5.06662C0.418631 5.12755 0.466098 5.17838 0.523706 5.21387C0.581314 5.24935 0.646978 5.2682 0.713926 5.26848C0.742432 5.26841 0.770842 5.26503 0.798629 5.25841C0.846638 5.24689 0.891985 5.22561 0.932064 5.1958C0.972142 5.16598 1.00616 5.12822 1.03217 5.08469L2.08006 3.33867L3.12796 5.08469C3.18075 5.17266 3.26498 5.23522 3.3621 5.25859C3.45923 5.28196 3.5613 5.26424 3.64586 5.20931C3.73042 5.15439 3.79055 5.06677 3.81302 4.96573C3.83548 4.86469 3.81845 4.7585 3.76566 4.67053L2.39952 2.39328C2.3658 2.3368 2.31874 2.29025 2.26282 2.25807C2.20689 2.22589 2.14397 2.20917 2.08006 2.20949ZM8.35777 5.18414C8.44251 5.23882 8.54465 5.25628 8.64176 5.23268C8.73886 5.20907 8.82299 5.14634 8.87567 5.05825L9.92357 3.31224L10.9715 5.05825C10.9976 5.10181 11.0317 5.13959 11.0719 5.16943C11.1121 5.19927 11.1575 5.22058 11.2056 5.23215C11.2537 5.24372 11.3035 5.24533 11.3522 5.23688C11.4009 5.22842 11.4475 5.21007 11.4894 5.18288C11.5312 5.15569 11.5675 5.12018 11.5962 5.07838C11.6249 5.03659 11.6454 4.98933 11.6565 4.9393C11.6676 4.88927 11.6692 4.83745 11.6611 4.7868C11.6529 4.73614 11.6353 4.68765 11.6092 4.64409L10.237 2.36936C10.2031 2.31318 10.1561 2.26687 10.1003 2.23476C10.0446 2.20266 9.98186 2.18581 9.91812 2.18581C9.85438 2.18581 9.79169 2.20266 9.73592 2.23476C9.68015 2.26687 9.63313 2.31318 9.59927 2.36936L8.23798 4.64535C8.1853 4.73336 8.16833 4.83951 8.19079 4.94051C8.21325 5.04152 8.2733 5.12913 8.35777 5.18414ZM11.6636 5.62725H8.17989C8.08971 5.62725 8.00323 5.66452 7.93946 5.73086C7.87569 5.7972 7.83987 5.88717 7.83987 5.98099C7.83987 6.5549 8.05902 7.10531 8.44911 7.51113C8.8392 7.91695 9.36827 8.14494 9.91994 8.14494C10.4716 8.14494 11.0007 7.91695 11.3908 7.51113C11.7809 7.10531 12 6.5549 12 5.98099C12 5.88782 11.9647 5.79841 11.9017 5.73218C11.8387 5.66595 11.7532 5.62825 11.6636 5.62725ZM6.36483 2.58085V7.53692C7.06062 7.62928 7.70029 7.982 8.16436 8.52918C8.62843 9.07636 8.88514 9.78059 8.88656 10.5103C8.88656 10.6402 8.83697 10.7647 8.74869 10.8566C8.66042 10.9484 8.54069 11 8.41585 11H3.58778C3.46294 11 3.34321 10.9484 3.25494 10.8566C3.16666 10.7647 3.11707 10.6402 3.11707 10.5103C3.11851 9.78696 3.37082 9.08844 3.82765 8.54312C4.28447 7.9978 4.91512 7.6423 5.60371 7.54195V2.56952C5.40008 2.49896 5.21699 2.37579 5.0716 2.21154C4.92621 2.0473 4.82326 1.84735 4.77241 1.63042H0.84824C0.749235 1.63042 0.654286 1.5895 0.584279 1.51667C0.514272 1.44384 0.474942 1.34506 0.474942 1.24207C0.474942 1.13907 0.514272 1.04029 0.584279 0.967459C0.654286 0.894629 0.749235 0.853713 0.84824 0.853713H4.81718C4.90755 0.602946 5.06933 0.386846 5.28091 0.234292C5.49249 0.0817387 5.74378 0 6.00121 0C6.25864 0 6.50993 0.0817387 6.72151 0.234292C6.93309 0.386846 7.09487 0.602946 7.18524 0.853713H11.1554C11.2544 0.853713 11.3493 0.894629 11.4194 0.967459C11.4894 1.04029 11.5287 1.13907 11.5287 1.24207C11.5287 1.34506 11.4894 1.44384 11.4194 1.51667C11.3493 1.5895 11.2544 1.63042 11.1554 1.63042H7.23122C7.17885 1.85361 7.07137 2.0587 6.91941 2.2254C6.76745 2.39209 6.57629 2.51462 6.36483 2.58085ZM6.5185 1.322C6.51898 1.21438 6.48867 1.10903 6.43144 1.01937C6.37421 0.92971 6.29264 0.859782 6.1971 0.818482C6.10157 0.777182 5.99638 0.766375 5.89493 0.787436C5.79347 0.808497 5.70033 0.860474 5.62734 0.936757C5.55436 1.01304 5.50483 1.11018 5.48506 1.21583C5.46529 1.32147 5.47617 1.43085 5.51632 1.53004C5.55646 1.62924 5.62406 1.71377 5.71051 1.77289C5.79696 1.83201 5.89836 1.86305 6.00181 1.86205C6.14013 1.86205 6.27279 1.80488 6.37059 1.70313C6.4684 1.60138 6.52334 1.46338 6.52334 1.31949L6.5185 1.322Z" fill="#495766"/>
</svg>
