<svg width="13" height="11" viewBox="0 0 13 11" fill="none" xmlns="http://www.w3.org/2000/svg">
<path d="M6.05832 1.46875L6.50019 1.91125L6.94207 1.46937C7.23179 1.17711 7.57638 0.94494 7.95607 0.786205C8.33576 0.62747 8.74306 0.545294 9.15459 0.544392C9.56612 0.543491 9.97378 0.623884 10.3542 0.780954C10.7345 0.938024 11.0801 1.16868 11.3711 1.45968C11.6621 1.75067 11.8928 2.09628 12.0499 2.47666C12.2069 2.85704 12.2873 3.2647 12.2864 3.67623C12.2855 4.08776 12.2033 4.49506 12.0446 4.87475C11.8859 5.25444 11.6537 5.59903 11.3614 5.88875L6.94269 10.3081C6.88465 10.3662 6.81571 10.4123 6.73984 10.4438C6.66397 10.4752 6.58264 10.4914 6.5005 10.4914C6.41837 10.4914 6.33704 10.4752 6.26117 10.4438C6.18529 10.4123 6.11636 10.3662 6.05832 10.3081L1.63894 5.88875C1.3427 5.59996 1.10675 5.25523 0.944772 4.87454C0.782798 4.49385 0.698027 4.08479 0.695377 3.67108C0.692726 3.25738 0.772248 2.84727 0.929331 2.46453C1.08641 2.0818 1.31793 1.73407 1.61045 1.44151C1.90297 1.14895 2.25067 0.917385 2.63338 0.760248C3.01608 0.603112 3.42619 0.523531 3.83989 0.526123C4.2536 0.528716 4.66267 0.613429 5.04338 0.775349C5.42409 0.937269 5.76886 1.17317 6.05769 1.46937L6.05832 1.46875Z" fill="#e60145"/>
</svg>
