<svg width="14" height="18" viewBox="0 0 14 18" fill="none" xmlns="http://www.w3.org/2000/svg">
<path d="M13.291 8.16407C12.9118 7.31067 12.3606 6.54469 11.6719 5.91407L11.1035 5.39259C11.0842 5.37537 11.061 5.36315 11.0359 5.357C11.0107 5.35085 10.9845 5.35096 10.9594 5.35733C10.9344 5.36369 10.9112 5.37611 10.8921 5.3935C10.8729 5.41088 10.8584 5.4327 10.8496 5.45704L10.5957 6.18556C10.4375 6.64259 10.1465 7.10939 9.73437 7.56837C9.70703 7.59767 9.67578 7.60548 9.6543 7.60743C9.63281 7.60939 9.59961 7.60548 9.57031 7.57814C9.54297 7.5547 9.5293 7.51954 9.53125 7.48439C9.60351 6.3086 9.25195 4.98243 8.48242 3.53907C7.8457 2.33985 6.96094 1.4043 5.85547 0.751961L5.04883 0.277351C4.94336 0.214851 4.80859 0.296882 4.81445 0.419929L4.85742 1.35743C4.88672 1.99805 4.8125 2.56446 4.63672 3.03516C4.42187 3.61134 4.11328 4.14649 3.71875 4.62696C3.44418 4.96088 3.13299 5.2629 2.79102 5.52735C1.96739 6.16049 1.29768 6.97176 0.832031 7.9004C0.367527 8.83715 0.125567 9.86849 0.125 10.9141C0.125 11.8359 0.306641 12.7285 0.666016 13.5703C1.01302 14.3808 1.51379 15.1164 2.14062 15.7363C2.77344 16.3613 3.50781 16.8535 4.32617 17.1953C5.17383 17.5508 6.07227 17.7305 7 17.7305C7.92773 17.7305 8.82617 17.5508 9.67383 17.1973C10.4902 16.8575 11.2325 16.3619 11.8594 15.7383C12.4922 15.1133 12.9883 14.3828 13.334 13.5723C13.6928 12.7328 13.8769 11.829 13.875 10.916C13.875 9.9629 13.6797 9.03712 13.291 8.16407Z" fill="#E72649"/>
</svg>
