<svg width="12" height="12" viewBox="0 0 12 12" fill="none" xmlns="http://www.w3.org/2000/svg">
<path d="M8.55466 8.36944C8.60328 8.29662 8.63707 8.21493 8.65409 8.12905C8.67111 8.04316 8.67103 7.95476 8.65386 7.8689C8.63669 7.78304 8.60276 7.70141 8.55401 7.62867C8.50526 7.55594 8.44266 7.49352 8.36977 7.445L6.66666 6.30963V3.99984C6.66666 3.82304 6.59642 3.65348 6.4714 3.52846C6.34637 3.40344 6.17681 3.3332 5.99999 3.3332C5.82318 3.3332 5.65361 3.40344 5.52859 3.52846C5.40357 3.65348 5.33333 3.82304 5.33333 3.99984V6.66639C5.33331 6.77614 5.3604 6.88419 5.41219 6.98095C5.46398 7.07771 5.53887 7.16018 5.6302 7.22103L7.6302 8.55431C7.70304 8.60287 7.78473 8.63662 7.87062 8.65361C7.9565 8.6706 8.04489 8.67051 8.13074 8.65334C8.21658 8.63617 8.29821 8.60226 8.37095 8.55355C8.44369 8.50483 8.50612 8.44227 8.55468 8.36942L8.55466 8.36944ZM5.99999 1.47576e-05C5.00699 -0.00219687 4.02923 0.244207 3.15587 0.716755C2.28252 1.1893 1.54137 1.87296 0.999999 2.70538V1.49995C0.999999 1.36735 0.947321 1.24018 0.853553 1.14641C0.759785 1.05265 0.632608 0.999971 0.5 0.999971C0.367391 0.999971 0.240215 1.05265 0.146446 1.14641C0.0526783 1.24018 0 1.36735 0 1.49995V3.49986C0.000375781 3.80915 0.123413 4.10567 0.342124 4.32437C0.560834 4.54307 0.857362 4.6661 1.16667 4.66648H3.16666C3.29927 4.66648 3.42645 4.6138 3.52022 4.52004C3.61398 4.42627 3.66666 4.2991 3.66666 4.1665C3.66666 4.0339 3.61398 3.90673 3.52022 3.81296C3.42645 3.7192 3.29927 3.66652 3.16666 3.66652H1.58777C2.14865 2.6157 3.06724 1.80041 4.17724 1.36823C5.28725 0.936057 6.51532 0.915559 7.63913 1.31045C8.76294 1.70534 9.70823 2.48952 10.3039 3.52104C10.8995 4.55256 11.1061 5.76324 10.8864 6.93391C10.6666 8.10459 10.0349 9.1579 9.10567 9.90316C8.17646 10.6484 7.01111 11.0364 5.82059 10.9968C4.63006 10.9572 3.49305 10.4927 2.61537 9.68743C1.7377 8.88211 1.17736 7.78919 1.03581 6.6065C1.01992 6.47493 0.95242 6.35507 0.848153 6.27327C0.743885 6.19147 0.611392 6.15444 0.47982 6.17032C0.348247 6.1862 0.228374 6.2537 0.146571 6.35797C0.0647679 6.46223 0.0277352 6.59472 0.0436199 6.72628C0.183518 7.87347 0.651764 8.95585 1.39208 9.84332C2.13239 10.7308 3.11326 11.3856 4.2168 11.729C5.32034 12.0724 6.49958 12.0898 7.61277 11.7791C8.72596 11.4685 9.72574 10.8429 10.4919 9.97768C11.2581 9.11245 11.7581 8.04437 11.9318 6.9018C12.1055 5.75924 11.9456 4.59083 11.4711 3.537C10.9967 2.48317 10.228 1.58878 9.25743 0.961328C8.28687 0.333875 7.15573 6.23579e-05 5.99999 1.47576e-05Z" fill="#E72649"/>
</svg>
