<svg width="12" height="14" viewBox="0 0 12 14" fill="none" xmlns="http://www.w3.org/2000/svg">
<path fill-rule="evenodd" clip-rule="evenodd" d="M5.92103 5.25792C4.88988 3.8596 5.13078 1.93319 6.42806 0.818513L10.3628 6.15392C8.88627 7.02535 6.95225 6.65618 5.9209 5.25802L5.92103 5.25792ZM4.63397 11.6927V13.5119C4.63397 14.1588 5.56055 14.1708 5.56055 13.4994V9.80066L6.45 9.13226C6.81028 8.86143 6.18615 7.95691 5.79758 8.23774C5.0986 8.74292 4.39981 9.24811 3.70082 9.75329C4.13993 10.323 4.62136 10.9966 4.63397 11.6928V11.6927ZM1.63703 9.90496C1.84755 10.1905 2.25746 10.2548 2.54673 10.0468L6.99626 6.84911C5.75498 6.463 4.69343 5.02397 4.71687 3.75858L0.267596 6.95631C-0.0217772 7.16434 -0.0869071 7.56728 0.123606 7.85269L1.63703 9.90496ZM6.91605 0.468806L10.8508 5.80421C12.1481 4.68954 12.3892 2.76303 11.3579 1.3648C10.3267 -0.0336243 8.39276 -0.402795 6.91603 0.468806H6.91605Z" fill="#E72649"/>
</svg>
