<svg width="15" height="18" viewBox="0 0 15 18" fill="none" xmlns="http://www.w3.org/2000/svg">
<path fill-rule="evenodd" clip-rule="evenodd" d="M7.40129 6.76019C6.11236 4.96234 6.41347 2.48553 8.03508 1.05237L12.9535 7.91218C11.1078 9.03259 8.69032 8.55794 7.40113 6.76032L7.40129 6.76019ZM5.79246 15.0335V17.3724C5.79246 18.2041 6.95069 18.2196 6.95069 17.3563V12.6009L8.0625 11.7415C8.51284 11.3933 7.73269 10.2303 7.24698 10.5914C6.37324 11.2409 5.49976 11.8904 4.62603 12.5399C5.17491 13.2724 5.7767 14.1385 5.79246 15.0336V15.0335ZM2.04628 12.735C2.30943 13.102 2.82183 13.1847 3.18342 12.9174L8.74532 8.80599C7.19372 8.30957 5.86678 6.45939 5.89608 4.83246L0.334495 8.94383C-0.0272215 9.21129 -0.108634 9.72936 0.154507 10.0963L2.04628 12.735ZM8.64507 0.60275L13.5635 7.46256C15.1851 6.02941 15.4865 3.55247 14.1974 1.75475C12.9083 -0.0432313 10.491 -0.517879 8.64504 0.60275H8.64507Z" fill="#E72649"/>
</svg>
