<svg width="105" height="15" viewBox="0 0 105 15" fill="none" xmlns="http://www.w3.org/2000/svg">
<path d="M10.6548 7.73586C11.2671 6.91936 11.655 5.87842 11.6345 4.85816C11.6142 3.83741 11.2671 2.79648 10.6548 1.97998C10.0629 1.14329 9.18519 0.530556 8.20543 0.224428C7.73596 0.0816959 7.22568 0 6.7154 0H0.364947C0.163393 0 0 0.163394 0 0.365237V14.3313C0 14.5332 0.163393 14.6965 0.364947 14.6965H2.41102C2.61257 14.6965 2.77597 14.5332 2.77597 14.3313V9.69566H6.0622L8.39137 14.4909C8.45245 14.6168 8.5799 14.6965 8.71965 14.6965H11.0509C11.3205 14.6965 11.4971 14.414 11.379 14.1718L8.94024 9.16462C9.63424 8.8383 10.2262 8.32793 10.6548 7.73586ZM2.77597 2.6129H6.69498C7.26648 2.6129 7.89926 2.95988 8.28708 3.40874C8.63406 3.79657 8.79736 4.32712 8.81779 4.85816C8.83816 5.34787 8.65449 5.8174 8.36873 6.20522C7.94006 6.77663 7.2461 7.10342 6.69498 7.10342H2.77597V2.6129Z" fill="white"/>
<path d="M64.3114 7.73586C64.9237 6.91936 65.3115 5.87842 65.2913 4.85816C65.2707 3.83741 64.9237 2.79648 64.3114 1.97998C63.7194 1.14329 62.8418 0.530556 61.8619 0.224428C61.3929 0.0816959 60.8825 0 60.3721 0H54.0218C53.82 0 53.6566 0.163394 53.6566 0.365237V14.3313C53.6566 14.5332 53.82 14.6965 54.0218 14.6965H56.0676C56.2695 14.6965 56.4329 14.5332 56.4329 14.3313V9.69566H59.719L62.0479 14.4909C62.109 14.6163 62.2368 14.6965 62.3762 14.6965H64.7074C64.977 14.6965 65.1539 14.414 65.0357 14.1718L62.5967 9.16462C63.2912 8.8383 63.8828 8.32793 64.3114 7.73586ZM56.4329 2.6129H60.3515C60.9234 2.6129 61.5558 2.95988 61.9436 3.40874C62.2906 3.79657 62.454 4.32712 62.4747 4.85816C62.4949 5.34787 62.3113 5.8174 62.0253 6.20522C61.5967 6.77663 60.9027 7.10342 60.3515 7.10342H56.4329V2.6129Z" fill="white"/>
<path d="M25.5245 0.365237C25.5245 0.163394 25.3611 0 25.1595 0H23.1301C22.9286 0 22.7652 0.163394 22.7652 0.365237V8.95797C22.7652 9.69758 22.5852 10.3372 22.1453 10.9173C21.5655 11.6973 20.6257 12.137 19.686 12.137C18.7262 12.137 17.7664 11.6973 17.1866 10.9375C16.7867 10.3574 16.5668 9.6774 16.5668 8.95797V0.367642C16.5668 0.165318 16.4017 0.00144015 16.1992 0.00288188L14.1698 0.0172986C13.9693 0.0187404 13.8075 0.181654 13.8075 0.382535V8.99786C13.8075 10.2776 14.2874 11.617 15.0871 12.6368C16.1669 13.9963 17.8864 14.6961 19.686 14.6961C21.4855 14.6961 23.1651 14.0165 24.2448 12.6368C25.0846 11.5973 25.5245 10.3372 25.5245 8.99786V0.365237Z" fill="white"/>
<path d="M38.4526 7.5321C38.228 7.24615 37.9831 6.98087 37.7178 6.73577C37.7381 6.71559 37.779 6.67475 37.7994 6.6339C38.3505 5.93994 38.6771 5.04174 38.6567 4.18439C38.6362 3.28619 38.3505 2.38799 37.7994 1.69403C37.3095 0.979895 36.5543 0.449342 35.697 0.204247C35.2888 0.0615154 34.8601 0 34.4315 0H28.062C27.8605 0 27.6971 0.163394 27.6971 0.365237V14.3313C27.6971 14.5332 27.8605 14.6965 28.062 14.6965H34.7785C35.2479 14.6965 35.7174 14.5942 36.1665 14.4716C37.0646 14.1862 37.881 13.635 38.4526 12.88C39.0241 12.0836 39.3302 11.1446 39.3302 10.206C39.3302 9.22613 39.0241 8.28709 38.4526 7.5321ZM34.411 2.59224C34.7376 2.59224 35.2275 2.85752 35.4316 3.1228C35.697 3.40874 35.8195 3.79657 35.8398 4.18439C35.8603 4.53137 35.7174 4.87835 35.4929 5.14363C35.2683 5.42957 34.8601 5.65399 34.5743 5.71551H30.5139V2.59224H34.411ZM36.5339 10.206C36.5135 10.7366 36.3298 11.247 35.9215 11.5939C35.5949 11.8794 35.1867 12.0836 34.7376 12.0836H30.5139V8.32793H34.7376C35.2071 8.32793 35.5949 8.42981 36.0031 8.8383C36.3502 9.20546 36.5543 9.71584 36.5339 10.206Z" fill="white"/>
<path d="M49.155 0C49.0247 0 48.9041 0.0696822 48.8387 0.183099L45.7598 5.53145L42.6809 0.183099C42.6158 0.0696822 42.4952 0 42.3646 0H39.9616C39.6808 0 39.5052 0.303721 39.6454 0.547374L44.3514 8.71576V14.6965H47.1682V8.71576L51.8741 0.547374C52.0144 0.303721 51.839 0 51.5578 0H49.155Z" fill="white"/>
<path d="M87.0317 0C87.2335 0 87.3969 0.163394 87.3969 0.365237V11.9203H93.3594C93.5608 11.9203 93.7242 12.0836 93.7242 12.2855V14.3313C93.7242 14.5332 93.5608 14.6965 93.3594 14.6965H84.9859C84.7845 14.6965 84.6211 14.5332 84.6211 14.3313V0.365237C84.6211 0.163394 84.7845 0 84.9859 0H87.0317Z" fill="white"/>
<path d="M98.3075 0C98.5093 0 98.6727 0.163394 98.6727 0.365237V11.9203H104.635C104.837 11.9203 105 12.0836 105 12.2855V14.3313C105 14.5332 104.837 14.6965 104.635 14.6965H96.2617C96.0598 14.6965 95.8964 14.5332 95.8964 14.3313V0.365237C95.8964 0.163394 96.0598 0 96.2617 0H98.3075Z" fill="white"/>
<path fill-rule="evenodd" clip-rule="evenodd" d="M71.6051 0.163395C71.7099 0.0586287 71.8512 0 71.9992 0H73.8067C74.1142 0 74.3637 0.249418 74.3637 0.556988V2.52736C74.3637 2.75227 74.2281 2.95555 74.02 3.04157L72.3539 3.73169C72.1458 3.81819 71.9065 3.77013 71.7469 3.61106L70.346 2.21018C70.1288 1.99248 70.1288 1.63973 70.346 1.42251L71.6051 0.163395ZM68.9019 2.86664C69.1196 2.64894 69.4723 2.64894 69.6895 2.86664L71.0842 4.2608C71.2433 4.42035 71.2908 4.66016 71.2048 4.86825L70.5123 6.54018C70.4258 6.74875 70.223 6.88428 69.9976 6.88428H68.021C67.7134 6.88428 67.464 6.63486 67.464 6.32729V4.53521C67.464 4.38767 67.5226 4.2459 67.6269 4.14162L68.9019 2.86664ZM68.021 7.81276C67.7134 7.81276 67.464 8.06217 67.464 8.36974V10.1613C67.464 10.3089 67.5226 10.4506 67.6269 10.5554L68.8644 11.7924C69.0821 12.0101 69.4348 12.0101 69.6521 11.7924L71.0621 10.3829C71.2216 10.2233 71.2692 9.984 71.1827 9.77591L70.5123 8.15637C70.4258 7.94828 70.223 7.81276 69.9976 7.81276H68.021ZM72.301 10.9432C72.0929 10.8567 71.8536 10.9043 71.694 11.0639L70.3085 12.4489C70.0913 12.6666 70.0913 13.0193 70.3085 13.237L71.6051 14.5336C71.7099 14.6379 71.8512 14.6965 71.9992 14.6965H73.8067C74.1142 14.6965 74.3637 14.4471 74.3637 14.1396V12.1697C74.3637 11.9443 74.2281 11.741 74.02 11.655L72.301 10.9432ZM75.8491 14.6965C75.5415 14.6965 75.2921 14.4471 75.2921 14.1396V12.1567C75.2921 11.9313 75.4281 11.728 75.6362 11.642L77.2923 10.9557C77.5004 10.8697 77.7402 10.9173 77.8997 11.0764L79.2939 12.471C79.5116 12.6882 79.5116 13.041 79.2939 13.2587L78.0189 14.5336C77.9146 14.6379 77.7729 14.6965 77.6253 14.6965H75.8491ZM80.738 11.8145C80.5203 12.0317 80.1681 12.0317 79.9504 11.8145L78.5495 10.4136C78.3904 10.2541 78.3424 10.0148 78.4289 9.80667L79.1122 8.15637C79.1983 7.94828 79.4015 7.81276 79.6269 7.81276H81.6035C81.9111 7.81276 82.1605 8.06217 82.1605 8.36974V10.1613C82.1605 10.3089 82.1019 10.4506 81.9971 10.5554L80.738 11.8145ZM81.6035 6.88428C81.9111 6.88428 82.1605 6.63486 82.1605 6.32729V4.53521C82.1605 4.38767 82.1019 4.2459 81.9971 4.14162L80.7005 2.84502C80.4833 2.62732 80.1306 2.62732 79.9129 2.84502L78.5274 4.23005C78.3683 4.3896 78.3207 4.62892 78.4067 4.83749L79.1122 6.54018C79.1983 6.74875 79.4015 6.88428 79.6269 6.88428H81.6035ZM77.8464 3.59809C77.6873 3.75764 77.4475 3.80521 77.2394 3.71919L75.6362 3.05503C75.4281 2.96853 75.2921 2.76572 75.2921 2.54033V0.556988C75.2921 0.249418 75.5415 0 75.8491 0H77.6253C77.7729 0 77.9146 0.0586287 78.0189 0.163395L79.2564 1.4004C79.4741 1.61811 79.4741 1.97085 79.2564 2.18855L77.8464 3.59809Z" fill="#E72649"/>
</svg>
