<svg width="66" height="33" viewBox="0 0 66 33" fill="none" xmlns="http://www.w3.org/2000/svg">
<path d="M20.3931 7H10.7118C6.94061 7 4.21252 7.72094 2.52751 9.16287C0.842504 10.6048 0 12.8463 0 15.8875C0 18.2995 0.575044 20.1084 1.72513 21.3144C2.81045 22.4795 4.30772 23.2776 6.21693 23.7086C6.33455 23.7352 6.41909 23.8371 6.41909 23.9554L2.0232 32.0897C1.7691 32.4852 2.05902 33 2.53578 33H8.66999C8.88266 33 9.07975 32.8907 9.18928 32.712L12.8141 25.4169C12.9236 25.2382 13.1207 25.1289 13.3334 25.1289L20.1371 25.1209C20.6261 25.1209 20.9136 24.5823 20.6348 24.1885L17.6289 19.8439C17.519 19.64 17.3068 19.5054 17.0715 19.5054H10.3387C9.00142 19.5054 8.02519 19.2432 7.41004 18.7189C6.79489 18.1946 6.4873 17.3688 6.4873 16.2414C6.4873 15.1403 6.79489 14.3276 7.41004 13.8033C8.02519 13.2527 9.00142 12.9774 10.3387 12.9774H17.0713C17.3066 12.9774 17.5188 12.8428 17.6287 12.6389L20.8909 7.93233C21.1696 7.53855 20.8821 7 20.3931 7Z" fill="white"/>
<path d="M45.6069 7H55.2884C59.0594 7 61.7876 7.72094 63.4726 9.16287C65.1576 10.6048 66 12.8463 66 15.8875C66 18.2995 65.4251 20.1084 64.275 21.3144C63.1897 22.4795 61.6925 23.2776 59.783 23.7086C59.6655 23.7352 59.581 23.8371 59.581 23.9554L63.977 32.0897C64.2311 32.4852 63.9412 33 63.4645 33H57.3302C57.1173 33 56.9204 32.8907 56.8107 32.712L53.186 25.4169C53.0763 25.2382 52.8794 25.1289 52.6668 25.1289L45.8628 25.1209C45.374 25.1209 45.0865 24.5823 45.3652 24.1885L48.3711 19.8439C48.4811 19.64 48.6931 19.5054 48.9284 19.5054H55.6612C56.9985 19.5054 57.9748 19.2432 58.5899 18.7189C59.2051 18.1946 59.5129 17.3688 59.5129 16.2414C59.5129 15.1403 59.2051 14.3276 58.5899 13.8033C57.9748 13.2527 56.9985 12.9774 55.6612 12.9774H48.9287C48.6934 12.9774 48.4811 12.8428 48.3714 12.6389L45.1092 7.93233C44.8303 7.53855 45.118 7 45.6069 7Z" fill="white"/>
<path fill-rule="evenodd" clip-rule="evenodd" d="M33.494 7.7916C33.2547 7.44334 32.7451 7.44334 32.5061 7.7916L27.1068 15.6536C26.9637 15.862 26.9637 16.1382 27.1068 16.3465L32.5061 24.2085C32.7451 24.5567 33.2547 24.5567 33.494 24.2085L38.8932 16.3465C39.0363 16.1382 39.0363 15.862 38.8932 15.6536L33.494 7.7916ZM35.717 1.43663C34.4017 -0.478875 31.5984 -0.478876 30.283 1.43663L21.5901 14.0947C20.8033 15.2405 20.8033 16.7596 21.5901 17.9054L30.283 30.5636C31.5984 32.4788 34.4017 32.4788 35.717 30.5636L44.4099 17.9054C45.1967 16.7596 45.1967 15.2405 44.4099 14.0947L35.717 1.43663Z" fill="#F00F38"/>
</svg>
