<svg width="10" height="10" viewBox="0 0 10 10" fill="none" xmlns="http://www.w3.org/2000/svg">
<path d="M9.9999 1.05263C9.99474 0.964171 9.95955 0.88123 9.90149 0.820687C9.84344 0.760143 9.76688 0.726547 9.68741 0.726734H7.7687V0.348553C7.7687 0.256111 7.73577 0.167455 7.67717 0.102089C7.61856 0.0367226 7.53908 0 7.4562 0H2.5438C2.46092 0 2.38144 0.0367226 2.32283 0.102089C2.26423 0.167455 2.2313 0.256111 2.2313 0.348553V0.726734H0.312593C0.233116 0.726547 0.156562 0.760143 0.0985084 0.820687C0.0404549 0.88123 0.00526468 0.964171 9.88803e-05 1.05263C9.88803e-05 1.05263 9.88803e-05 1.11014 9.88803e-05 1.20948C-0.00480947 1.96894 0.1731 2.71595 0.515265 3.37256C0.85743 4.02918 1.35131 4.57135 1.94537 4.94249L2.93754 5.5664C3.25856 5.96453 3.66822 6.26093 4.12502 6.42558V7.60021H3.16879C3.08591 7.60021 3.00642 7.63693 2.94782 7.7023C2.88922 7.76766 2.85629 7.85632 2.85629 7.94876V9.65145C2.85629 9.74389 2.88922 9.83254 2.94782 9.89791C3.00642 9.96328 3.08591 10 3.16879 10H6.83121C6.91409 10 6.99358 9.96328 7.05218 9.89791C7.11078 9.83254 7.14371 9.74389 7.14371 9.65145V7.94876C7.14371 7.85632 7.11078 7.76766 7.05218 7.7023C6.99358 7.63693 6.91409 7.60021 6.83121 7.60021H5.87498V6.42558C6.33178 6.26093 6.74144 5.96453 7.06246 5.5664L8.05463 4.94249C8.64869 4.57135 9.14257 4.02918 9.48474 3.37256C9.8269 2.71595 10.0048 1.96894 9.9999 1.20948C9.9999 1.11014 9.9999 1.05263 9.9999 1.05263ZM2.25318 4.33601C1.78313 4.04381 1.38721 3.62339 1.10248 3.11408C0.817739 2.60477 0.653487 2.02322 0.625087 1.42384H2.2313V3.53085C2.231 3.82583 2.26889 4.11932 2.3438 4.40223L2.25318 4.33601ZM7.74682 4.33601L7.6562 4.39352C7.73111 4.11061 7.769 3.81712 7.7687 3.52213V1.42384H9.37491C9.34651 2.02322 9.18226 2.60477 8.89752 3.11408C8.61279 3.62339 8.21687 4.04381 7.74682 4.33601Z" fill="#8D8E92"/>
</svg>
