<svg width="14" height="14" viewBox="0 0 14 14" fill="none" xmlns="http://www.w3.org/2000/svg">
<path d="M1.16669 3.50002C1.16669 3.17786 1.42786 2.91669 1.75002 2.91669H12.25C12.5722 2.91669 12.8334 3.17786 12.8334 3.50002C12.8334 3.82218 12.5722 4.08335 12.25 4.08335H1.75002C1.42786 4.08335 1.16669 3.82218 1.16669 3.50002Z" fill="#8D8E92"/>
<path d="M1.16669 7.01879C1.16669 6.69661 1.42786 6.43546 1.75002 6.43546H12.25C12.5722 6.43546 12.8334 6.69661 12.8334 7.01879C12.8334 7.34096 12.5722 7.60212 12.25 7.60212H1.75002C1.42786 7.60212 1.16669 7.34096 1.16669 7.01879Z" fill="#8D8E92"/>
<path d="M1.75002 9.95428C1.42786 9.95428 1.16669 10.2154 1.16669 10.5376C1.16669 10.8597 1.42786 11.121 1.75002 11.121H12.25C12.5722 11.121 12.8334 10.8597 12.8334 10.5376C12.8334 10.2154 12.5722 9.95428 12.25 9.95428H1.75002Z" fill="#8D8E92"/>
</svg>
