<svg width="10" height="12" viewBox="0 0 10 12" fill="none" xmlns="http://www.w3.org/2000/svg">
<path fill-rule="evenodd" clip-rule="evenodd" d="M5.00009 12C5.68759 12 6.25009 11.46 6.25009 10.8H3.75009C3.75009 11.46 4.30634 12 5.00009 12ZM8.75009 8.39999V5.39999C8.75009 3.55799 7.72509 2.01599 5.93759 1.60799V1.19999C5.93759 0.701988 5.51884 0.299988 5.00009 0.299988C4.48134 0.299988 4.06259 0.701988 4.06259 1.19999V1.60799C2.26884 2.01599 1.25009 3.55199 1.25009 5.39999V8.39999L0.443843 9.17399C0.0500932 9.55199 0.325093 10.2 0.881343 10.2H9.11259C9.66884 10.2 9.95009 9.55199 9.55634 9.17399L8.75009 8.39999Z" fill="#8D8E92"/>
</svg>
