<svg width="13" height="13" viewBox="0 0 13 13" fill="none" xmlns="http://www.w3.org/2000/svg">
<path d="M6.5 7.22222C6.89887 7.22222 7.22222 6.89887 7.22222 6.5C7.22222 6.10113 6.89887 5.77778 6.5 5.77778C6.10113 5.77778 5.77778 6.10113 5.77778 6.5C5.77778 6.89887 6.10113 7.22222 6.5 7.22222Z" fill="#E72649"/>
<path d="M6.5 0C2.91007 0 0 2.91007 0 6.5C0 10.0899 2.91007 13 6.5 13C10.0899 13 13 10.0899 13 6.5C13 2.91007 10.0899 0 6.5 0ZM10.7505 3.76904L9.49867 4.49126C9.23626 4.10078 8.8997 3.76422 8.50922 3.50133L9.23144 2.24996C9.84052 2.64189 10.3586 3.15996 10.7505 3.76904ZM6.74074 1.45648C7.48607 1.49163 8.18904 1.68519 8.81593 2.00922L8.09178 3.26348C7.67867 3.05933 7.22319 2.93319 6.74074 2.90093V1.45648ZM6.25926 1.45648V2.90093C5.7773 2.9327 5.32182 3.05933 4.9087 3.263L4.18456 2.00874C4.81144 1.68519 5.51393 1.49211 6.25926 1.45648ZM3.76807 2.25044L4.4903 3.50181C4.1003 3.76422 3.76374 4.10078 3.50133 4.49126L2.24948 3.76856C2.64141 3.15996 3.15948 2.64189 3.76807 2.25044ZM2.00874 4.18504L3.263 4.90967C3.05933 5.3223 2.93319 5.77778 2.90093 6.25974H1.45648C1.49163 5.51441 1.68519 4.81193 2.00874 4.18504ZM1.45648 6.74122H2.90093C2.9327 7.22319 3.05981 7.67867 3.26348 8.0913L2.00922 8.81544C1.68519 8.18904 1.49211 7.48656 1.45648 6.74122ZM2.25044 9.23193L3.50181 8.5097C3.7647 8.90019 4.10126 9.23674 4.49174 9.49915L3.76904 10.7505C3.15996 10.3586 2.64189 9.84052 2.25044 9.23193ZM6.25926 11.5435C5.51441 11.5084 4.81193 11.3148 4.18504 10.9917L4.90967 9.73748C5.32133 9.94115 5.7773 10.0673 6.25926 10.0996V11.5435ZM6.25926 8.66667V7.67915C5.78741 7.58382 5.41618 7.21211 5.32085 6.74074H4.33333V6.25926H5.32085C5.41618 5.78789 5.78789 5.41618 6.25926 5.32085V4.33333H6.74074V5.32085C7.21211 5.41618 7.58382 5.78789 7.67915 6.25926H8.66667V6.74074H7.67915C7.58382 7.21211 7.21211 7.58382 6.74074 7.67915V8.66667H6.25926ZM6.74074 11.5435V10.0991C7.2227 10.0673 7.67819 9.94067 8.09082 9.737L8.81496 10.9913C8.18856 11.3148 7.48607 11.5079 6.74074 11.5435ZM9.23193 10.75L8.50922 9.49819C8.8997 9.23578 9.23578 8.8997 9.49867 8.50922L10.75 9.23144C10.3581 9.84052 9.84004 10.3586 9.23193 10.75ZM10.9913 8.81544L9.737 8.0913C9.94067 7.67867 10.0668 7.22319 10.0991 6.74122H11.5435C11.5079 7.48656 11.3148 8.18904 10.9913 8.81544ZM10.0991 6.25974C10.0673 5.77778 9.94067 5.3223 9.737 4.90967L10.9913 4.18504C11.3148 4.81193 11.5084 5.51441 11.543 6.25974H10.0991Z" fill="#E72649"/>
</svg>
