<svg width="12" height="12" viewBox="0 0 12 12" fill="none" xmlns="http://www.w3.org/2000/svg">
<path d="M6 6.66667C6.36819 6.66667 6.66667 6.36819 6.66667 6C6.66667 5.63181 6.36819 5.33333 6 5.33333C5.63181 5.33333 5.33333 5.63181 5.33333 6C5.33333 6.36819 5.63181 6.66667 6 6.66667Z" fill="#495766"/>
<path d="M6 0C2.68622 0 0 2.68622 0 6C0 9.31378 2.68622 12 6 12C9.31378 12 12 9.31378 12 6C12 2.68622 9.31378 0 6 0ZM9.92356 3.47911L8.768 4.14578C8.52578 3.78533 8.21511 3.47467 7.85467 3.232L8.52133 2.07689C9.08356 2.43867 9.56178 2.91689 9.92356 3.47911ZM6.22222 1.34444C6.91022 1.37689 7.55911 1.55556 8.13778 1.85467L7.46933 3.01244C7.088 2.824 6.66756 2.70756 6.22222 2.67778V1.34444ZM5.77778 1.34444V2.67778C5.33289 2.70711 4.91244 2.824 4.53111 3.012L3.86267 1.85422C4.44133 1.55556 5.08978 1.37733 5.77778 1.34444ZM3.47822 2.07733L4.14489 3.23244C3.78489 3.47467 3.47422 3.78533 3.232 4.14578L2.07644 3.47867C2.43822 2.91689 2.91644 2.43867 3.47822 2.07733ZM1.85422 3.86311L3.012 4.532C2.824 4.91289 2.70756 5.33333 2.67778 5.77822H1.34444C1.37689 5.09022 1.55556 4.44178 1.85422 3.86311ZM1.34444 6.22267H2.67778C2.70711 6.66756 2.82444 7.088 3.01244 7.46889L1.85467 8.13733C1.55556 7.55911 1.37733 6.91067 1.34444 6.22267ZM2.07733 8.52178L3.23244 7.85511C3.47511 8.21556 3.78578 8.52622 4.14622 8.76845L3.47911 9.92356C2.91689 9.56178 2.43867 9.08356 2.07733 8.52178ZM5.77778 10.6556C5.09022 10.6231 4.44178 10.4444 3.86311 10.1462L4.532 8.98845C4.912 9.17645 5.33289 9.29289 5.77778 9.32267V10.6556ZM5.77778 8V7.08844C5.34222 7.00044 4.99956 6.65733 4.91156 6.22222H4V5.77778H4.91156C4.99956 5.34267 5.34267 4.99956 5.77778 4.91156V4H6.22222V4.91156C6.65733 4.99956 7.00044 5.34267 7.08844 5.77778H8V6.22222H7.08844C7.00044 6.65733 6.65733 7.00044 6.22222 7.08844V8H5.77778ZM6.22222 10.6556V9.32222C6.66711 9.29289 7.08756 9.176 7.46844 8.988L8.13689 10.1458C7.55867 10.4444 6.91022 10.6227 6.22222 10.6556ZM8.52178 9.92311L7.85467 8.76756C8.21511 8.52533 8.52533 8.21511 8.768 7.85467L9.92311 8.52133C9.56133 9.08356 9.08311 9.56178 8.52178 9.92311ZM10.1458 8.13733L8.988 7.46889C9.176 7.088 9.29244 6.66756 9.32222 6.22267H10.6556C10.6227 6.91067 10.4444 7.55911 10.1458 8.13733ZM9.32222 5.77822C9.29289 5.33333 9.176 4.91289 8.988 4.532L10.1458 3.86311C10.4444 4.44178 10.6231 5.09022 10.6551 5.77822H9.32222Z" fill="#495766"/>
</svg>
