<svg width="13" height="16" viewBox="0 0 13 16" fill="none" xmlns="http://www.w3.org/2000/svg">
<path fill-rule="evenodd" clip-rule="evenodd" d="M6.76758 3.8958C6.63795 3.72167 6.36191 3.72167 6.23244 3.8958L3.30786 7.8268C3.23036 7.93098 3.23036 8.06908 3.30786 8.17324L6.23244 12.1042C6.36191 12.2784 6.63795 12.2784 6.76758 12.1042L9.69213 8.17324C9.76965 8.06908 9.76965 7.93098 9.69213 7.8268L6.76758 3.8958ZM7.97173 0.718314C7.25924 -0.239438 5.74079 -0.239438 5.0283 0.718313L0.319656 7.04734C-0.106552 7.62025 -0.106552 8.37981 0.319656 8.9527L5.0283 15.2818C5.74079 16.2394 7.25924 16.2394 7.97173 15.2818L12.6804 8.9527C13.1065 8.37981 13.1065 7.62025 12.6804 7.04734L7.97173 0.718314Z" fill="#F00F38"/>
</svg>
