<svg width="12" height="12" viewBox="0 0 12 12" fill="none" xmlns="http://www.w3.org/2000/svg">
<path d="M5.76464 0.00345993C5.54412 0.0111914 5.29209 0.0355759 5.17915 0.0599594C5.04065 0.090291 5.03174 0.0938597 4.97884 0.136681C4.92415 0.181286 4.91226 0.209239 4.90216 0.31867C4.89978 0.349597 4.89324 0.409666 4.88789 0.452487C4.88314 0.494713 4.87719 0.54705 4.876 0.56846C4.87422 0.589871 4.87006 0.62853 4.86709 0.654697C4.85579 0.748666 4.8338 0.946713 4.82904 1.00262C4.82786 1.01749 4.82251 1.06685 4.81716 1.11265C4.80586 1.20899 4.79992 1.26192 4.78981 1.36541C4.7803 1.46651 4.77971 1.46711 4.72086 1.479C4.65429 1.49328 4.49558 1.53848 4.37967 1.57773C4.29348 1.60628 4.25247 1.62174 4.11219 1.67586C4.02243 1.71036 3.81379 1.8067 3.75495 1.84179C3.73295 1.85428 3.71155 1.86499 3.70739 1.86499C3.70323 1.86499 3.68362 1.85369 3.66341 1.84001C3.59446 1.79184 3.04403 1.39871 2.9412 1.32378C2.67906 1.13406 2.6648 1.12573 2.60833 1.12514C2.57683 1.12514 2.56316 1.12811 2.53403 1.14298C2.45794 1.18223 2.44011 1.19353 2.35987 1.2536C2.32658 1.27917 2.28616 1.30653 2.27071 1.31545C2.25525 1.32378 2.2285 1.3434 2.21067 1.35827C2.19284 1.37374 2.16312 1.39812 2.1441 1.41299C1.99668 1.53015 1.67392 1.84417 1.53245 2.00773C1.51164 2.03211 1.47955 2.06898 1.46112 2.08861C1.40108 2.15522 1.36483 2.20102 1.2929 2.30331C1.27685 2.32532 1.25129 2.361 1.23643 2.38182C1.22098 2.40263 1.19601 2.43772 1.17996 2.45913C1.14073 2.51385 1.11636 2.56856 1.11636 2.60365C1.11636 2.61257 1.12052 2.63577 1.12587 2.65599C1.13419 2.68811 1.1443 2.70357 1.20612 2.78088C1.25367 2.84036 1.27685 2.87426 1.27685 2.88437C1.27685 2.90875 1.2828 2.91767 1.30063 2.91767C1.31371 2.91767 1.32441 2.92719 1.35829 2.96942C1.48014 3.12167 1.75773 3.46721 1.82074 3.54512C1.86056 3.59449 1.89682 3.64028 1.90098 3.64682C1.90752 3.65812 1.90396 3.66764 1.8677 3.73306C1.81955 3.81989 1.76843 3.921 1.74228 3.97928C1.73217 4.00188 1.71493 4.03935 1.70483 4.06254C1.64776 4.18863 1.61567 4.26357 1.57881 4.35991C1.53245 4.47946 1.46112 4.68761 1.46112 4.70308C1.46112 4.70843 1.45815 4.71497 1.45458 4.71676C1.44626 4.72211 1.28755 4.74887 1.03315 4.78812C1.00224 4.79288 0.959438 4.79942 0.93804 4.80299C0.916641 4.80656 0.883354 4.81191 0.863738 4.81489C0.844123 4.81786 0.804298 4.8244 0.774577 4.82976C0.745451 4.83511 0.705031 4.84165 0.685416 4.84462C0.620625 4.85355 0.566534 4.86247 0.557618 4.86604C0.552862 4.86782 0.530275 4.87139 0.507093 4.87436C0.484505 4.87734 0.442302 4.88388 0.413771 4.88864C0.385239 4.89399 0.344819 4.90053 0.324609 4.9041C0.200378 4.92254 0.178979 4.93027 0.148069 4.96774C0.137965 4.97963 0.123104 5.00342 0.114783 5.02007C0.0963559 5.05754 0.0702018 5.13961 0.0702018 5.15984C0.0702018 5.16816 0.066041 5.19493 0.0606913 5.21931C0.00778884 5.47088 -0.0147987 5.98949 0.0101665 6.385C0.0184882 6.51643 0.0458311 6.77098 0.0583136 6.82807C0.0618801 6.84413 0.0672298 6.87387 0.0702018 6.8935C0.0814956 6.97022 0.107055 7.03861 0.135587 7.07073C0.170063 7.10939 0.221182 7.1195 0.548701 7.15221C0.58496 7.15578 0.635485 7.16113 0.661639 7.1641C0.785871 7.17897 0.980837 7.19919 1.10745 7.21109C1.17343 7.21763 1.27031 7.22893 1.33332 7.23785L1.38028 7.24439L1.39395 7.29494C1.44329 7.4805 1.47301 7.57566 1.53602 7.74694C1.55741 7.80404 1.57703 7.85638 1.58 7.86292C1.58238 7.86946 1.59427 7.89622 1.60556 7.92239C1.61745 7.94856 1.62874 7.97651 1.63112 7.98484C1.63766 8.00863 1.73455 8.20906 1.79221 8.31789L1.82847 8.38629L1.77259 8.4636C1.74168 8.50583 1.7078 8.55341 1.6971 8.56828C1.687 8.58315 1.6436 8.6444 1.60081 8.70388C1.5586 8.76335 1.49262 8.85554 1.45518 8.90847C1.41773 8.9614 1.35591 9.04764 1.31787 9.09997C1.09972 9.40269 1.10329 9.39556 1.12468 9.45682C1.13954 9.49904 1.16748 9.549 1.24951 9.67806C1.33629 9.81544 1.53483 10.045 1.77021 10.2805C1.91822 10.4286 2.01214 10.5137 2.20473 10.676C2.2612 10.7236 2.3777 10.8116 2.3985 10.8223C2.40742 10.8265 2.42525 10.8378 2.43773 10.8467C2.45022 10.8556 2.47162 10.8681 2.48529 10.8741C2.49896 10.8806 2.52511 10.8925 2.54354 10.9008C2.62022 10.9359 2.65707 10.9246 2.77001 10.8342C2.81756 10.7962 2.95071 10.6891 3.06662 10.5963C3.30617 10.4036 3.39771 10.3299 3.51183 10.2359C3.55582 10.1996 3.59564 10.1675 3.59981 10.1651C3.60456 10.1622 3.61645 10.1663 3.62953 10.1753C3.76802 10.2668 4.09852 10.4233 4.37967 10.5297C4.49499 10.5731 4.5259 10.5832 4.66796 10.6243L4.72681 10.6415L4.73453 10.6885C4.73869 10.7147 4.74583 10.7581 4.75058 10.7861C4.75534 10.814 4.76247 10.8568 4.76604 10.8812C4.7702 10.9056 4.77674 10.9472 4.78149 10.9734C4.79813 11.0656 4.80943 11.1352 4.82251 11.2172C4.82726 11.2499 4.83439 11.2898 4.83737 11.3064C4.84034 11.3225 4.84688 11.3629 4.85223 11.3957C4.85698 11.4284 4.86411 11.4682 4.86709 11.4849C4.87541 11.5313 4.898 11.6663 4.90275 11.699C4.91761 11.8013 4.92296 11.8274 4.93663 11.8596C4.95209 11.8976 4.98537 11.9369 5.00974 11.947C5.04065 11.9601 5.09177 11.9702 5.14943 11.9755C5.18212 11.9785 5.24097 11.985 5.2802 11.9898C5.38303 12.0029 6.69965 12.0035 6.79713 11.991C6.8322 11.9862 6.88511 11.9809 6.91423 11.9785C6.94871 11.9761 6.97427 11.9708 6.98853 11.963C6.99983 11.9571 7.0129 11.9517 7.01707 11.9517C7.03014 11.9517 7.07948 11.8958 7.09315 11.8649C7.1092 11.828 7.12584 11.7472 7.12584 11.7037C7.12584 11.6877 7.12822 11.6597 7.13119 11.6419C7.13654 11.6127 7.1514 11.4825 7.15854 11.4076C7.16983 11.2779 7.1728 11.2517 7.17577 11.244C7.17756 11.2392 7.18172 11.2042 7.18528 11.1667C7.19777 11.0358 7.20252 10.9906 7.21203 10.9139C7.22451 10.8063 7.23284 10.726 7.237 10.6701C7.23878 10.6439 7.24235 10.6195 7.24532 10.616C7.24829 10.6124 7.26256 10.6076 7.27742 10.6058C7.35885 10.5945 7.67032 10.4923 7.83319 10.4233C7.85756 10.4126 7.90571 10.3929 7.94018 10.3787C8.03113 10.3412 8.27484 10.2205 8.32477 10.1877C8.3319 10.183 8.34082 10.1794 8.34379 10.1794C8.34973 10.1794 8.41333 10.2246 8.68201 10.4191C8.73966 10.4613 8.80743 10.5095 8.8318 10.5267C8.85617 10.544 8.96197 10.6195 9.06659 10.6945C9.1718 10.7694 9.26869 10.8384 9.28236 10.8485C9.29603 10.858 9.31981 10.8747 9.33407 10.8854C9.37212 10.9121 9.41907 10.9211 9.45533 10.908C9.491 10.8955 9.50824 10.8878 9.53023 10.8765C9.55282 10.8646 9.56173 10.8604 9.58373 10.8503C9.63722 10.8259 9.79533 10.7093 9.91897 10.6029C10.1657 10.3911 10.4848 10.0694 10.621 9.89633C10.6293 9.88622 10.6572 9.85113 10.684 9.81901C10.7101 9.7863 10.7381 9.74943 10.7458 9.73634C10.7535 9.72326 10.7791 9.68579 10.8029 9.65248C10.876 9.55197 10.9104 9.48834 10.9152 9.44789C10.9188 9.41756 10.917 9.40626 10.9033 9.37058C10.8944 9.34798 10.8849 9.32776 10.8819 9.32538C10.876 9.32181 10.7767 9.1981 10.7511 9.16302C10.7434 9.15231 10.7292 9.13447 10.7196 9.12436C10.7054 9.10889 10.4314 8.77049 10.3832 8.70864C10.3749 8.69793 10.3469 8.66284 10.3208 8.63013C10.1561 8.42614 10.1276 8.38986 10.1276 8.38629C10.1276 8.38391 10.1395 8.36428 10.1532 8.34228C10.2019 8.26794 10.2489 8.1817 10.2946 8.08297C10.4088 7.83437 10.4979 7.58637 10.5615 7.33777C10.5651 7.32409 10.5704 7.31279 10.5734 7.31279C10.5764 7.31279 10.6103 7.30743 10.6489 7.3003C10.6875 7.29375 10.7351 7.28602 10.7547 7.28305C10.813 7.27413 11.0109 7.24082 11.1589 7.21525C11.169 7.21347 11.2195 7.20514 11.2718 7.19681C11.3242 7.18849 11.3913 7.17778 11.4205 7.17243C11.4502 7.16767 11.4912 7.16113 11.5126 7.15756C11.534 7.15459 11.5809 7.14685 11.6166 7.14031C11.6529 7.13437 11.7117 7.12425 11.7474 7.1189C11.8181 7.1082 11.8651 7.09333 11.8894 7.0743C11.8984 7.06775 11.9114 7.04813 11.9198 7.03029C11.9406 6.98687 11.9703 6.89231 11.9703 6.8703C11.9703 6.86019 11.9768 6.80964 11.9851 6.7579L12 6.66333V6.01269C12 5.34539 11.9988 5.29781 11.9762 5.19136C11.9697 5.16103 11.9643 5.12356 11.9643 5.10809C11.9643 5.07479 11.9513 5.02245 11.9388 5.00282C11.9108 4.9606 11.8567 4.92729 11.7949 4.9154C11.748 4.90588 11.5881 4.88745 11.4407 4.87496C11.4062 4.87198 11.3717 4.86782 11.3634 4.86604C11.3557 4.86425 11.3212 4.85949 11.2867 4.85652C11.1821 4.84581 11.1209 4.83927 11.0371 4.82976C10.9931 4.8244 10.9313 4.81786 10.9003 4.81489C10.8694 4.81191 10.8201 4.80656 10.7904 4.80359C10.7613 4.80061 10.6917 4.79348 10.6358 4.78812C10.5806 4.78277 10.533 4.77682 10.5312 4.77445C10.5288 4.77207 10.5217 4.7459 10.5146 4.71676C10.4801 4.57818 10.3993 4.34148 10.3428 4.21599C10.3297 4.18744 10.3101 4.14105 10.2982 4.1131C10.2721 4.04946 10.1651 3.82881 10.1401 3.78718C10.13 3.76993 10.1217 3.75269 10.1217 3.74852C10.1217 3.74436 10.1294 3.73306 10.1383 3.72354C10.1472 3.71343 10.1847 3.66407 10.2203 3.61352C10.2566 3.56297 10.3083 3.49041 10.3357 3.45294C10.363 3.41547 10.3993 3.36551 10.4153 3.34232C10.4319 3.31912 10.4605 3.27987 10.4789 3.25608C10.4967 3.2317 10.5235 3.19482 10.5383 3.17401C10.5526 3.15319 10.5764 3.11929 10.5912 3.09907C10.618 3.0616 10.8082 2.79635 10.8451 2.7452C10.8849 2.69049 10.9122 2.62447 10.9122 2.58403C10.9122 2.54596 10.898 2.5198 10.8094 2.39609C10.7844 2.361 10.7535 2.31758 10.741 2.29974C10.6436 2.15938 10.5128 2.00832 10.3 1.79184C10.1234 1.61163 9.87142 1.38563 9.79771 1.34162C9.7674 1.32378 9.67883 1.26074 9.65387 1.23992C9.62712 1.21732 9.52369 1.14952 9.48862 1.13168C9.41075 1.09302 9.37271 1.10491 9.24194 1.21137C9.1926 1.25181 9.14267 1.29166 9.13197 1.29999C9.12127 1.30831 9.07253 1.34697 9.02439 1.38682C8.93998 1.45521 8.7575 1.60211 8.46148 1.83941C8.38718 1.89948 8.32477 1.94825 8.32298 1.94825C8.32001 1.94825 8.26295 1.91435 8.20172 1.87688C8.08165 1.80314 7.83735 1.68895 7.60731 1.59974C7.45039 1.53907 7.42959 1.53134 7.37431 1.51409C7.3107 1.49447 7.31368 1.49804 7.30773 1.43975C7.30417 1.40704 7.29763 1.366 7.28336 1.28512C7.27801 1.25538 7.27147 1.21554 7.2685 1.19591C7.26553 1.17628 7.25899 1.13584 7.25364 1.1067C7.24829 1.07696 7.24175 1.03711 7.23878 1.01749C7.23581 0.997861 7.23046 0.965745 7.22749 0.946119C7.22095 0.908056 7.19955 0.777808 7.17993 0.657671C7.1734 0.616634 7.16507 0.572029 7.16151 0.557755C7.15854 0.544076 7.15556 0.526235 7.15556 0.517908C7.15556 0.510177 7.1514 0.481034 7.14665 0.454271C7.1413 0.426913 7.13476 0.391229 7.13179 0.375171C7.12881 0.358519 7.12228 0.31867 7.11693 0.28596C7.10623 0.215781 7.08661 0.17177 7.0557 0.147387C7.03609 0.131923 6.9606 0.100997 6.90591 0.0855331C6.88689 0.0807753 6.84231 0.0718546 6.76206 0.0569859C6.74661 0.0540123 6.71748 0.0474701 6.69727 0.0421181C6.5778 0.0117865 6.09335 -0.00843525 5.76464 0.00345993ZM6.20154 3.00094C6.43752 3.02175 6.58136 3.04495 6.74899 3.08777C6.85658 3.11513 7.01825 3.16568 7.07235 3.18828C7.09018 3.19601 7.13714 3.21504 7.17637 3.23051C7.32675 3.28939 7.52112 3.39525 7.70242 3.51598C7.82427 3.59746 7.87123 3.63314 7.9699 3.7176C7.98476 3.73068 8.00854 3.7509 8.02281 3.7622C8.06263 3.79491 8.24987 3.98107 8.28256 4.02091C8.29861 4.04054 8.31882 4.06254 8.32833 4.07028C8.33725 4.07801 8.34438 4.08752 8.34438 4.09109C8.34438 4.09526 8.35092 4.10418 8.35924 4.11191C8.37291 4.12559 8.47812 4.26059 8.49001 4.28081C8.49358 4.28617 8.52033 4.32601 8.54945 4.37002C8.6725 4.55082 8.80327 4.80954 8.87697 5.0171C8.96019 5.25024 9.00715 5.45185 9.03925 5.70699C9.06718 5.92883 9.06659 6.20182 9.03925 6.43555C9.03152 6.49859 9.00655 6.6562 8.99823 6.69426C8.97564 6.79477 8.9483 6.90301 8.94117 6.92264C8.93641 6.93513 8.92869 6.9607 8.92393 6.97914C8.90194 7.07013 8.80624 7.3116 8.73966 7.44363C8.64099 7.64049 8.48585 7.87898 8.3533 8.03599C8.25581 8.15256 8.10602 8.30659 8.02934 8.37023C8.00795 8.38807 7.98655 8.4071 7.98179 8.41246C7.97704 8.41781 7.96099 8.43089 7.94613 8.44219C7.93127 8.45349 7.91403 8.46777 7.90749 8.47371C7.90095 8.48026 7.88728 8.49096 7.87718 8.4981C7.86707 8.50524 7.84508 8.52189 7.82843 8.53497C7.79574 8.56114 7.75473 8.59088 7.73868 8.60039C7.73333 8.60337 7.6941 8.62954 7.65189 8.65749C7.6091 8.68604 7.55085 8.72291 7.52112 8.73956C7.40343 8.80796 7.10088 8.94772 7.02598 8.96913C7.01053 8.97329 6.97427 8.98459 6.94455 8.9947C6.84706 9.02742 6.81497 9.03693 6.7157 9.06072C6.46308 9.12138 6.28238 9.14339 6.00538 9.14755C5.66003 9.15231 5.35153 9.10354 4.99786 8.98757C4.82369 8.93047 4.60139 8.82996 4.4403 8.7354C4.40345 8.71339 4.36243 8.68901 4.34876 8.68128C4.33509 8.67355 4.30894 8.6563 4.28991 8.64262C4.27089 8.62954 4.23761 8.60634 4.21621 8.59147C4.19421 8.5766 4.15617 8.54865 4.13121 8.52902C4.10624 8.5094 4.07593 8.4868 4.06404 8.47847C4.05215 8.47015 4.02719 8.44992 4.00816 8.43387C3.98974 8.41721 3.96061 8.39224 3.94397 8.37737C3.87383 8.31611 3.7597 8.2043 3.71096 8.14839C3.69491 8.12996 3.6747 8.10736 3.66638 8.09843C3.63963 8.0687 3.61704 8.04193 3.59624 8.01458C3.58494 7.99971 3.57187 7.98365 3.56771 7.97889C3.51718 7.92239 3.41435 7.77311 3.3347 7.64108C3.29012 7.56793 3.20631 7.40557 3.17659 7.33658C3.17005 7.32171 3.15578 7.29078 3.14508 7.26699C3.0904 7.14804 2.99589 6.84294 2.96795 6.69426C2.9198 6.43793 2.91029 6.33325 2.91088 6.06265C2.91088 5.86995 2.91505 5.7855 2.92991 5.67428C2.93823 5.61124 2.96319 5.46196 2.97151 5.42449C2.98578 5.36443 3.03155 5.18719 3.03749 5.17233C3.04106 5.164 3.04819 5.1408 3.05414 5.12118C3.12012 4.89756 3.28596 4.55677 3.43159 4.34505C3.46547 4.29628 3.57425 4.14878 3.59802 4.11964C3.6319 4.0786 3.70561 3.99474 3.72225 3.97869C3.73236 3.96858 3.75851 3.94181 3.77991 3.91921C3.85837 3.83654 4.01114 3.69678 4.02243 3.69678C4.0254 3.69678 4.03194 3.69202 4.0361 3.68608C4.04383 3.67537 4.14963 3.59389 4.2281 3.53799C4.27089 3.50765 4.40701 3.4232 4.41296 3.4232C4.41474 3.4232 4.42485 3.41666 4.43495 3.40893C4.46883 3.38276 4.7066 3.265 4.81062 3.22218C5.01926 3.13654 5.23265 3.07469 5.43178 3.04257C5.45615 3.03841 5.48052 3.03424 5.48527 3.03246C5.49003 3.03127 5.51678 3.02711 5.54471 3.02413C5.57265 3.02116 5.61961 3.01581 5.64873 3.01224C5.76762 2.99796 6.09514 2.99142 6.20154 3.00094Z" fill="#8D8E92"/>
</svg>
