<svg width="14" height="14" viewBox="0 0 14 14" fill="none" xmlns="http://www.w3.org/2000/svg">
<path d="M7.53846 9.15385C7.53846 11.2356 5.85095 12.9231 3.76923 12.9231C1.68751 12.9231 0 11.2356 0 9.15385C0 7.07213 1.68751 5.38462 3.76923 5.38462C5.85095 5.38462 7.53846 7.07213 7.53846 9.15385Z" fill="#E72649"/>
<path d="M10.2308 6.46153C9.45759 6.46153 8.73919 6.69627 8.14162 7.09578C8.43669 7.72258 8.61541 8.41501 8.61541 9.15384C8.61541 10.4612 8.09196 11.6427 7.25098 12.5138C7.94015 13.412 9.01168 14 10.2308 14C12.3125 14 14 12.3125 14 10.2308C14 8.14907 12.3125 6.46157 10.2308 6.46157V6.46153Z" fill="#E72649"/>
<path d="M3.23058 4.30769H4.30751C4.30751 3.01538 3.72385 1.86742 2.81917 1.07692H3.76905C6.47434 1.07692 8.75735 2.90228 9.46289 5.38462H10.5732C9.84077 2.30246 7.072 0 3.76923 0H0V1.07692C1.78126 1.07692 3.23077 2.52643 3.23077 4.30769H3.23058Z" fill="#E72649"/>
</svg>
