<svg width="14" height="14" viewBox="0 0 14 14" fill="none" xmlns="http://www.w3.org/2000/svg">
<path d="M14 7C14 10.7461 10.8613 13.7812 6.98871 13.7812C3.77661 13.7812 1.07258 11.6949 0.242742 8.84844L2.92984 9.92305C3.11048 10.8008 3.91492 11.4652 4.8746 11.4652C5.98105 11.4652 6.90403 10.5793 6.85605 9.45547L9.24113 7.80938C10.7117 7.84492 11.9452 6.69102 11.9452 5.25273C11.9452 3.8418 10.7597 2.69609 9.3004 2.69609C7.84113 2.69609 6.65564 3.84453 6.65564 5.25273V5.28555L4.98468 7.62891C4.54718 7.6043 4.11814 7.72188 3.75686 7.95977L0 6.45586C0.287903 2.96406 3.30524 0.21875 6.98871 0.21875C10.8613 0.21875 14 3.25391 14 7ZM4.39476 10.5082L3.53387 10.1637C3.69207 10.4819 3.96522 10.7329 4.30161 10.8691C5.06089 11.1754 5.93306 10.8254 6.24919 10.0926C6.40161 9.73711 6.40444 9.34609 6.25202 8.99062C6.0996 8.63516 5.81452 8.35625 5.44758 8.20859C5.08347 8.06094 4.69395 8.06641 4.3496 8.19219L5.23871 8.54766C5.79758 8.77188 6.0629 9.39258 5.82863 9.93398C5.59435 10.4781 4.95363 10.7324 4.39476 10.5082ZM9.3004 6.95625C8.32944 6.95625 7.53911 6.19063 7.53911 5.25273C7.53911 4.31484 8.32944 3.54922 9.3004 3.54922C10.2714 3.54922 11.0617 4.31484 11.0617 5.25273C11.0617 6.19063 10.2742 6.95625 9.3004 6.95625ZM9.30323 6.52969C10.0343 6.52969 10.627 5.95547 10.627 5.25C10.627 4.5418 10.0343 3.97031 9.30323 3.97031C8.57218 3.97031 7.97944 4.54453 7.97944 5.25C7.98226 5.95547 8.575 6.52969 9.30323 6.52969Z" fill="white"/>
</svg>
