<svg width="10" height="12" viewBox="0 0 10 12" fill="none" xmlns="http://www.w3.org/2000/svg">
<path d="M8.06313 3.58893H1.07499L0.347656 12H2.54528L2.54539 9.07509C2.54539 7.95251 3.46239 7.03563 4.58486 7.03563C5.70745 7.03563 6.62433 7.95262 6.62433 9.07509V11.9842H8.82196L8.06313 3.58893Z" fill="#8D8E92"/>
<path d="M8.82202 3.16206L9.1382 0H7.98408V0.395257C7.98408 0.774732 7.68365 1.07504 7.30429 1.07504C6.92482 1.07504 6.62451 0.774619 6.62451 0.395257V0H5.24904V0.395257C5.24904 0.774732 4.94862 1.07504 4.56925 1.07504C4.18978 1.07504 3.88947 0.774619 3.88947 0.395257V0H2.51369V0.395257C2.51369 0.774732 2.21327 1.07504 1.83391 1.07504C1.45443 1.07504 1.15412 0.774619 1.15412 0.395257V0H0L0.316177 3.16206H8.82202Z" fill="#8D8E92"/>
</svg>
