<svg width="14" height="13" viewBox="0 0 14 13" fill="none" xmlns="http://www.w3.org/2000/svg">
<path fill-rule="evenodd" clip-rule="evenodd" d="M1.40096 12.0053H11.943C13.021 12.0053 13.693 10.8265 13.154 9.88765L7.88296 0.704118C7.34396 -0.234706 5.99996 -0.234706 5.46096 0.704118L0.18996 9.88765C-0.34904 10.8265 0.32296 12.0053 1.40096 12.0053ZM6.67196 7.06412C6.28696 7.06412 5.97196 6.74647 5.97196 6.35824V4.94647C5.97196 4.55824 6.28696 4.24059 6.67196 4.24059C7.05696 4.24059 7.37196 4.55824 7.37196 4.94647V6.35824C7.37196 6.74647 7.05696 7.06412 6.67196 7.06412ZM7.37196 9.88765H5.97196V8.47588H7.37196V9.88765Z" fill="#64A9E2"/>
</svg>
